0
SECTION
2
HEADER
9
$INSUNITS
70
4
9
$ACADVER
1
AC1014
9
$HANDSEED
5
FFFF
0
ENDSEC
0
SECTION
2
TABLES
0
TABLE
2
VPORT
5
8
100
AcDbSymbolTable
0
ENDTAB
0
TABLE
2
LTYPE
5
5
100
AcDbSymbolTable
0
LTYPE
5
14
100
AcDbSymbolTableRecord
100
AcDbLinetypeTableRecord
2
BYBLOCK
70
0
0
LTYPE
5
15
100
AcDbSymbolTableRecord
100
AcDbLinetypeTableRecord
2
BYLAYER
70
0
0
LTYPE
5
16
100
AcDbSymbolTableRecord
100
AcDbLinetypeTableRecord
2
DASHED
70
0
3
Dashed __ __ __ __ __ __ __ __ __ __ __ __ __ _
72
65
73
2
40
0.75
49
0.5
74
0
49
-0.25
74
0
0
ENDTAB
0
TABLE
2
LAYER
5
2
100
AcDbSymbolTable
70
2
0
LAYER
5
50
100
AcDbSymbolTableRecord
100
AcDbLayerTableRecord
2
0
70
0
62
7
6
CONTINUOUS
0
ENDTAB
0
TABLE
2
STYLE
5
3
100
AcDbSymbolTable
70
1
0
STYLE
5
11
100
AcDbSymbolTableRecord
100
AcDbTextStyleTableRecord
2
STANDARD
70
0
0
ENDTAB
0
TABLE
2
VIEW
5
6
100
AcDbSymbolTable
70
0
0
ENDTAB
0
TABLE
2
UCS
5
7
100
AcDbSymbolTable
70
0
0
ENDTAB
0
TABLE
2
APPID
5
9
100
AcDbSymbolTable
70
2
0
APPID
5
12
100
AcDbSymbolTableRecord
100
AcDbRegAppTableRecord
2
ACAD
70
0
0
ENDTAB
0
TABLE
2
DIMSTYLE
5
A
100
AcDbSymbolTable
70
1
0
ENDTAB
0
TABLE
2
BLOCK_RECORD
5
1
100
AcDbSymbolTable
70
1
0
BLOCK_RECORD
5
1F
100
AcDbSymbolTableRecord
100
AcDbBlockTableRecord
2
*MODEL_SPACE
0
BLOCK_RECORD
5
1B
100
AcDbSymbolTableRecord
100
AcDbBlockTableRecord
2
*PAPER_SPACE
0
ENDTAB
0
ENDSEC
0
SECTION
2
BLOCKS
0
BLOCK
5
20
100
AcDbEntity
100
AcDbBlockBegin
2
*MODEL_SPACE
0
ENDBLK
5
21
100
AcDbEntity
100
AcDbBlockEnd
0
BLOCK
5
1C
100
AcDbEntity
100
AcDbBlockBegin
2
*PAPER_SPACE
0
ENDBLK
5
1D
100
AcDbEntity
100
AcDbBlockEnd
0
ENDSEC
0
SECTION
2
ENTITIES
0
POINT
5
100
100
AcDbEntity
8
0
100
AcDbPoint
10
0
20
0
30
0
0
POINT
5
101
100
AcDbEntity
8
0
100
AcDbPoint
10
0
20
550
30
0
0
POINT
5
102
100
AcDbEntity
8
0
100
AcDbPoint
10
40
20
450
30
0
0
POINT
5
103
100
AcDbEntity
8
0
100
AcDbPoint
10
-116.32135966511456
20
436.54248508668559
30
0
0
POINT
5
104
100
AcDbEntity
8
0
100
AcDbPoint
10
-188.11107882911779
20
516.83094143224957
30
0
0
POINT
5
105
100
AcDbEntity
8
0
100
AcDbPoint
10
-258.61264663418359
20
370.43150379100177
30
0
0
POINT
5
106
100
AcDbEntity
8
0
100
AcDbPoint
10
-353.53318532759664
20
421.32444371543795
30
0
0
POINT
5
107
100
AcDbEntity
8
0
100
AcDbPoint
10
-369.7114317029974
20
259.64101615137758
30
0
0
POINT
5
108
100
AcDbEntity
8
0
100
AcDbPoint
10
-476.31397208144119
20
275.00000000000006
30
0
0
POINT
5
109
100
AcDbEntity
8
0
100
AcDbPoint
10
-436.21756174881631
20
117.53399007060705
30
0
0
POINT
5
110
100
AcDbEntity
8
0
100
AcDbPoint
10
-541.64426415671437
20
95.506497716811793
30
0
0
POINT
5
111
100
AcDbEntity
8
0
100
AcDbPoint
10
-450.10941596217089
20
-38.749369829630311
30
0
0
POINT
5
112
100
AcDbEntity
8
0
100
AcDbPoint
10
-541.64426415671448
20
-95.506497716811666
30
0
0
POINT
5
113
100
AcDbEntity
8
0
100
AcDbPoint
10
-409.71143170299746
20
-190.35898384862236
30
0
0
POINT
5
114
100
AcDbEntity
8
0
100
AcDbPoint
10
-476.31397208144136
20
-274.99999999999989
30
0
0
POINT
5
115
100
AcDbEntity
8
0
100
AcDbPoint
10
-319.89620208370189
20
-319.00849501607837
30
0
0
POINT
5
116
100
AcDbEntity
8
0
100
AcDbPoint
10
-353.5331853275967
20
-421.32444371543772
30
0
0
POINT
5
117
100
AcDbEntity
8
0
100
AcDbPoint
10
-191.49676932798729
20
-409.18087362063193
30
0
0
POINT
5
118
100
AcDbEntity
8
0
100
AcDbPoint
10
-188.11107882911784
20
-516.83094143224946
30
0
0
POINT
5
119
100
AcDbEntity
8
0
100
AcDbPoint
10
-40.000000000000057
20
-450
30
0
0
POINT
5
120
100
AcDbEntity
8
0
100
AcDbPoint
10
-6.7355573953104432e-14
20
-550
30
0
0
POINT
5
121
100
AcDbEntity
8
0
100
AcDbPoint
10
116.32135966511456
20
-436.54248508668547
30
0
0
POINT
5
122
100
AcDbEntity
8
0
100
AcDbPoint
10
188.11107882911779
20
-516.83094143224946
30
0
0
POINT
5
123
100
AcDbEntity
8
0
100
AcDbPoint
10
258.61264663418359
20
-370.43150379100177
30
0
0
POINT
5
124
100
AcDbEntity
8
0
100
AcDbPoint
10
353.53318532759664
20
-421.32444371543795
30
0
0
POINT
5
125
100
AcDbEntity
8
0
100
AcDbPoint
10
369.71143170299729
20
-259.64101615137764
30
0
0
POINT
5
126
100
AcDbEntity
8
0
100
AcDbPoint
10
476.31397208144108
20
-275.00000000000011
30
0
0
POINT
5
127
100
AcDbEntity
8
0
100
AcDbPoint
10
436.21756174881648
20
-117.53399007060696
30
0
0
POINT
5
128
100
AcDbEntity
8
0
100
AcDbPoint
10
541.64426415671448
20
-95.506497716811666
30
0
0
POINT
5
129
100
AcDbEntity
8
0
100
AcDbPoint
10
450.10941596217089
20
38.749369829630155
30
0
0
POINT
5
130
100
AcDbEntity
8
0
100
AcDbPoint
10
541.64426415671448
20
95.506497716811495
30
0
0
POINT
5
131
100
AcDbEntity
8
0
100
AcDbPoint
10
409.7114317029974
20
190.3589838486225
30
0
0
POINT
5
132
100
AcDbEntity
8
0
100
AcDbPoint
10
476.31397208144119
20
275.00000000000006
30
0
0
POINT
5
133
100
AcDbEntity
8
0
100
AcDbPoint
10
319.89620208370195
20
319.00849501607843
30
0
0
POINT
5
134
100
AcDbEntity
8
0
100
AcDbPoint
10
353.53318532759681
20
421.32444371543784
30
0
0
POINT
5
135
100
AcDbEntity
8
0
100
AcDbPoint
10
191.49676932798755
20
409.18087362063193
30
0
0
POINT
5
136
100
AcDbEntity
8
0
100
AcDbPoint
10
188.11107882911816
20
516.83094143224946
30
0
0
CIRCLE
5
137
100
AcDbEntity
8
0
100
AcDbCircle
10
0
20
0
30
0
40
600
210
0
220
0
230
1
0
CIRCLE
5
138
100
AcDbEntity
8
0
100
AcDbCircle
10
0
20
0
30
0
40
400
210
0
220
0
230
1
0
LWPOLYLINE
5
139
100
AcDbEntity
8
0
100
AcDbPolyline
90
4
70
1
43
0.0
10
20
20
510
10
-20
20
510
10
-20
20
590
10
20
20
590
0
LWPOLYLINE
5
140
100
AcDbEntity
8
0
100
AcDbPolyline
90
4
70
1
43
0.0
10
-20
20
410
10
-60
20
410
10
-60
20
490
10
-20
20
490
0
LWPOLYLINE
5
141
100
AcDbEntity
8
0
100
AcDbPolyline
90
5
70
1
43
0.0
10
9.9999999999999964
20
490
10
70
20
490
10
70
20
450
10
40
20
410
10
9.9999999999999964
20
410
0
LWPOLYLINE
5
142
100
AcDbEntity
8
0
100
AcDbPolyline
90
5
70
1
43
0.0
10
40
20
550
10
40
20
510
10
100
20
510
10
60
20
590
10
40
20
590
0
LWPOLYLINE
5
143
100
AcDbEntity
8
0
100
AcDbPolyline
90
5
70
1
43
0.0
10
-101.81138677456406
20
484.39079421789188
10
-88.130581041537312
20
446.80308938645561
10
-102.64055393208781
20
398.95478025524926
10
-130.83133255566509
20
388.69417595547918
10
-158.19294402171857
20
463.86958561835178
0
LWPOLYLINE
5
144
100
AcDbEntity
8
0
100
AcDbPolyline
90
5
70
1
43
0.0
10
-145.41032731499001
20
574.93985486322606
10
-80.461011017500141
20
513.44525093338018
10
-136.84256826465466
20
492.92404233384002
10
-150.52337399768143
20
530.51174716527635
10
-164.20417973070818
20
568.09945199671279
0
LWPOLYLINE
5
145
100
AcDbEntity
8
0
100
AcDbPolyline
90
4
70
1
43
0.0
10
-223.97142747673215
20
439.92817558555498
10
-186.38372264529582
20
453.6089813185817
10
-159.0221111792423
20
378.4335716557091
10
-196.60981601067868
20
364.75276592268239
0
LWPOLYLINE
5
146
100
AcDbEntity
8
0
100
AcDbPolyline
90
4
70
1
43
0.0
10
-220.58573697786269
20
547.57824339717263
10
-182.99803214642634
20
561.2590491301994
10
-155.63642068037282
20
486.08363946732663
10
-193.22412551180918
20
472.40283373429986
0
LWPOLYLINE
5
147
100
AcDbEntity
8
0
100
AcDbPolyline
90
5
70
1
43
0.0
10
-261.34281772807577
20
420.35690980635701
10
-235.63131334061424
20
389.71513208159791
10
-232.90114224672203
20
339.78972606624262
10
-255.88247554029135
20
320.50609777564637
10
-307.30548431521447
20
381.78965322516461
0
LWPOLYLINE
5
148
100
AcDbEntity
8
0
100
AcDbPolyline
90
5
70
1
43
0.0
10
-333.28202312791962
20
490.53347802138944
10
-251.21723662823726
20
454.9614269593327
10
-297.17990321537593
20
416.39417037814042
10
-322.89140760283749
20
447.03594810289957
10
-348.60291199029911
20
477.67772582765866
0
LWPOLYLINE
5
149
100
AcDbEntity
8
0
100
AcDbPolyline
90
4
70
1
43
0.0
10
-360.928595333543
20
336.79452054710686
10
-330.28681760878385
20
362.50602493456847
10
-278.86380883386073
20
301.22246948505023
10
-309.50558655861983
20
275.51096509758861
0
LWPOLYLINE
5
150
100
AcDbEntity
8
0
100
AcDbPolyline
90
4
70
1
43
0.0
10
-394.5655785774378
20
439.11046924646627
10
-363.92380085267865
20
464.82197363392788
10
-312.50079207775548
20
403.53841818440964
10
-343.14256980251463
20
377.82691379694802
0
LWPOLYLINE
5
151
100
AcDbEntity
8
0
100
AcDbPolyline
90
5
70
1
43
0.0
10
-389.35244785437487
20
305.62177826491074
10
-354.7114317029974
20
285.62177826491074
10
-335.07041555161982
20
239.64101615137758
10
-350.07041555161982
20
213.66025403784442
10
-419.35244785437487
20
253.66025403784445
0
LWPOLYLINE
5
152
100
AcDbEntity
8
0
100
AcDbPolyline
90
5
70
1
43
0.0
10
-480.95498823281878
20
346.96152422706638
10
-391.67295593006367
20
341.60254037844396
10
-421.67295593006367
20
289.64101615137758
10
-456.31397208144119
20
309.64101615137758
10
-490.95498823281878
20
329.64101615137764
0
LWPOLYLINE
5
153
100
AcDbEntity
8
0
100
AcDbPolyline
90
4
70
1
43
0.0
10
-454.35244785437487
20
193.03847577293374
10
-434.35244785437487
20
227.67949192431129
10
-365.07041555161982
20
187.67949192431126
10
-385.07041555161982
20
153.03847577293371
0
LWPOLYLINE
5
154
100
AcDbEntity
8
0
100
AcDbPolyline
90
4
70
1
43
0.0
10
-520.95498823281878
20
277.67949192431126
10
-500.95498823281878
20
312.32050807568885
10
-431.67295593006367
20
272.32050807568885
10
-451.67295593006367
20
237.67949192431129
0
LWPOLYLINE
5
155
100
AcDbEntity
8
0
100
AcDbPolyline
90
5
70
1
43
0.0
10
-470.40042653929675
20
154.0241497676505
10
-431.00811641880841
20
147.07822266097327
10
-396.82525162832803
20
110.58806296392984
10
-402.03469695833587
20
81.04383037356358
10
-480.81931719931254
20
94.935684586918029
0
LWPOLYLINE
5
156
100
AcDbEntity
8
0
100
AcDbPolyline
90
5
70
1
43
0.0
10
-570.6176836171868
20
161.54089000422147
10
-484.88713626953302
20
187.04134591135534
10
-495.30602692954886
20
127.95288073062288
10
-534.69833705003714
20
134.89880783730013
10
-574.09064717052547
20
141.84473494397733
0
LWPOLYLINE
5
157
100
AcDbEntity
8
0
100
AcDbPolyline
90
4
70
1
43
0.0
10
-492.97468963599772
20
25.999141876063483
10
-486.02876252932049
20
65.391451996551794
10
-407.24414228834382
20
51.499597783197345
10
-414.19006939502106
20
12.107287662709041
0
LWPOLYLINE
5
158
100
AcDbEntity
8
0
100
AcDbPolyline
90
4
70
1
43
0.0
10
-584.50953783054126
20
82.756269763244859
10
-577.56361072386403
20
122.14857988373318
10
-498.77899048288748
20
108.25672567037873
10
-505.72491758956465
20
68.86441554989041
0
LWPOLYLINE
5
159
100
AcDbEntity
8
0
100
AcDbPolyline
90
5
70
1
43
0.0
10
-494.71117141266711
20
-16.151064345941279
10
-455.31886129217878
20
-9.2051372392640651
10
-410.7171058416825
20
-31.803442722953097
10
-405.50766051167466
20
-61.34767531331935
10
-484.29228075265132
20
-75.239529526673778
0
LWPOLYLINE
5
160
100
AcDbEntity
8
0
100
AcDbPolyline
90
5
70
1
43
0.0
10
-591.45546493721861
20
-43.363959642756384
10
-519.61677180291917
20
9.920204691086365
10
-509.19788114290333
20
-49.168260489646123
10
-548.59019126339172
20
-56.114187596323347
10
-587.98250138387994
20
-63.060114703000551
0
LWPOLYLINE
5
161
100
AcDbEntity
8
0
100
AcDbPolyline
90
4
70
1
43
0.0
10
-472.13690831596614
20
-144.17607223752833
10
-479.08283542264337
20
-104.78376211704001
10
-400.29821518166671
20
-90.891907903685592
10
-393.35228807498947
20
-130.28421802417392
0
LWPOLYLINE
5
162
100
AcDbEntity
8
0
100
AcDbPolyline
90
4
70
1
43
0.0
10
-577.56361072386414
20
-122.14857988373303
10
-584.50953783054138
20
-82.756269763244717
10
-505.72491758956471
20
-68.864415549890282
10
-498.77899048288754
20
-108.25672567037861
0
LWPOLYLINE
5
163
100
AcDbEntity
8
0
100
AcDbPolyline
90
5
70
1
43
0.0
10
-459.35244785437504
20
-184.3782217350892
10
-424.71143170299746
20
-164.3782217350892
10
-375.07041555161993
20
-170.35898384862236
10
-360.07041555161993
20
-196.33974596215552
10
-429.35244785437504
20
-236.33974596215552
0
LWPOLYLINE
5
164
100
AcDbEntity
8
0
100
AcDbPolyline
90
5
70
1
43
0.0
10
-540.95498823281889
20
-243.03847577293354
10
-491.67295593006378
20
-168.39745962155601
10
-461.67295593006378
20
-220.35898384862236
10
-496.31397208144136
20
-240.35898384862236
10
-530.95498823281889
20
-260.3589838486223
0
LWPOLYLINE
5
165
100
AcDbEntity
8
0
100
AcDbPolyline
90
4
70
1
43
0.0
10
-394.35244785437504
20
-296.96152422706621
10
-414.35244785437504
20
-262.32050807568868
10
-345.07041555161993
20
-222.32050807568868
10
-325.07041555161993
20
-256.96152422706621
0
LWPOLYLINE
5
166
100
AcDbEntity
8
0
100
AcDbPolyline
90
4
70
1
43
0.0
10
-500.95498823281895
20
-312.32050807568862
10
-520.95498823281889
20
-277.67949192431109
10
-451.67295593006378
20
-237.67949192431109
10
-431.67295593006378
20
-272.32050807568868
0
LWPOLYLINE
5
167
100
AcDbEntity
8
0
100
AcDbPolyline
90
5
70
1
43
0.0
10
-368.58903976473277
20
-330.36664445024132
10
-342.87753537727122
20
-299.72486672548223
10
-294.18469769624028
20
-288.36671729131928
10
-271.20336440267096
20
-307.65034558191542
10
-322.62637317759413
20
-368.93390103143366
0
LWPOLYLINE
5
168
100
AcDbEntity
8
0
100
AcDbPolyline
90
5
70
1
43
0.0
10
-425.20735630219696
20
-413.39896485900448
10
-404.42612525203288
20
-326.40390502202467
10
-358.46345866489423
20
-364.97116160321701
10
-384.17496305235579
20
-395.61293932797611
10
-409.88646743981741
20
-426.25471705273526
0
LWPOLYLINE
5
169
100
AcDbEntity
8
0
100
AcDbPolyline
90
4
70
1
43
0.0
10
-269.00326215926566
20
-413.92903370949142
10
-299.64503988402481
20
-388.2175293220298
10
-248.22203110910164
20
-326.93397387251161
10
-217.58025338434251
20
-352.64547825997317
0
LWPOLYLINE
5
170
100
AcDbEntity
8
0
100
AcDbPolyline
90
4
70
1
43
0.0
10
-363.92380085267871
20
-464.82197363392766
10
-394.56557857743792
20
-439.11046924646604
10
-343.14256980251469
20
-377.82691379694779
10
-312.50079207775559
20
-403.53841818440941
0
LWPOLYLINE
5
171
100
AcDbEntity
8
0
100
AcDbPolyline
90
5
70
1
43
0.0
10
-233.36835368459131
20
-436.50797415229817
10
-219.68754795156454
20
-398.92026932086185
10
-177.81596359496052
20
-371.5931687891956
10
-149.62518497138328
20
-381.85377308896568
10
-176.98679643743679
20
-457.02918275183833
0
LWPOLYLINE
5
172
100
AcDbEntity
8
0
100
AcDbPolyline
90
5
70
1
43
0.0
10
-258.17344180929911
20
-533.89743766414563
10
-268.39953517468194
20
-445.04122226824632
10
-212.01797792752743
20
-465.56243086778642
10
-225.69878366055417
20
-503.15013569922269
10
-239.37958939358094
20
-540.73784053065901
0
LWPOLYLINE
5
173
100
AcDbEntity
8
0
100
AcDbPolyline
90
4
70
1
43
0.0
10
-111.20831298242322
20
-480.97059278463519
10
-148.79601781385955
20
-467.28978705160841
10
-121.43440634780605
20
-392.11437738873576
10
-83.846701516369706
20
-405.79518312176253
0
LWPOLYLINE
5
174
100
AcDbEntity
8
0
100
AcDbPolyline
90
4
70
1
43
0.0
10
-182.99803214642645
20
-561.25904913019917
10
-220.58573697786278
20
-547.5782433971724
10
-193.22412551180929
20
-472.4028337342998
10
-155.63642068037294
20
-486.08363946732658
0
LWPOLYLINE
5
175
100
AcDbEntity
8
0
100
AcDbPolyline
90
5
70
1
43
0.0
10
-70.000000000000057
20
-490
10
-70.000000000000057
20
-450
10
-40.000000000000057
20
-410
10
-10.000000000000046
20
-410
10
-10.000000000000055
20
-490
0
LWPOLYLINE
5
176
100
AcDbEntity
8
0
100
AcDbPolyline
90
5
70
1
43
0.0
10
-60.000000000000071
20
-590
10
-100.00000000000007
20
-510
10
-40.000000000000064
20
-510
10
-40.000000000000071
20
-550
10
-40.000000000000071
20
-590
0
LWPOLYLINE
5
177
100
AcDbEntity
8
0
100
AcDbPolyline
90
4
70
1
43
0.0
10
59.999999999999936
20
-490
10
19.99999999999994
20
-490
10
19.99999999999995
20
-410
10
59.999999999999943
20
-410
0
LWPOLYLINE
5
178
100
AcDbEntity
8
0
100
AcDbPolyline
90
4
70
1
43
0.0
10
19.999999999999925
20
-590
10
-20.000000000000071
20
-590
10
-20.000000000000064
20
-510
10
19.999999999999936
20
-510
0
LWPOLYLINE
5
179
100
AcDbEntity
8
0
100
AcDbPolyline
90
5
70
1
43
0.0
10
101.81138677456406
20
-484.39079421789182
10
88.130581041537326
20
-446.80308938645544
10
102.64055393208781
20
-398.95478025524915
10
130.83133255566509
20
-388.69417595547907
10
158.19294402171857
20
-463.86958561835172
0
LWPOLYLINE
5
180
100
AcDbEntity
8
0
100
AcDbPolyline
90
5
70
1
43
0.0
10
145.41032731499001
20
-574.93985486322595
10
80.461011017500184
20
-513.44525093338007
10
136.84256826465469
20
-492.92404233383996
10
150.52337399768146
20
-530.51174716527623
10
164.20417973070818
20
-568.09945199671256
0
LWPOLYLINE
5
181
100
AcDbEntity
8
0
100
AcDbPolyline
90
4
70
1
43
0.0
10
223.97142747673215
20
-439.92817558555492
10
186.38372264529582
20
-453.60898131858164
10
159.0221111792423
20
-378.43357165570899
10
196.60981601067868
20
-364.75276592268233
0
LWPOLYLINE
5
182
100
AcDbEntity
8
0
100
AcDbPolyline
90
4
70
1
43
0.0
10
220.58573697786269
20
-547.5782433971724
10
182.99803214642634
20
-561.25904913019917
10
155.63642068037285
20
-486.08363946732658
10
193.22412551180918
20
-472.4028337342998
0
LWPOLYLINE
5
183
100
AcDbEntity
8
0
100
AcDbPolyline
90
5
70
1
43
0.0
10
261.34281772807577
20
-420.35690980635701
10
235.63131334061424
20
-389.71513208159791
10
232.90114224672203
20
-339.78972606624262
10
255.88247554029135
20
-320.50609777564637
10
307.30548431521447
20
-381.78965322516461
0
LWPOLYLINE
5
184
100
AcDbEntity
8
0
100
AcDbPolyline
90
5
70
1
43
0.0
10
333.28202312791962
20
-490.53347802138944
10
251.21723662823726
20
-454.9614269593327
10
297.17990321537593
20
-416.39417037814042
10
322.89140760283749
20
-447.03594810289957
10
348.60291199029911
20
-477.67772582765866
0
LWPOLYLINE
5
185
100
AcDbEntity
8
0
100
AcDbPolyline
90
4
70
1
43
0.0
10
360.928595333543
20
-336.79452054710686
10
330.28681760878385
20
-362.50602493456847
10
278.86380883386073
20
-301.22246948505023
10
309.50558655861983
20
-275.51096509758861
0
LWPOLYLINE
5
186
100
AcDbEntity
8
0
100
AcDbPolyline
90
4
70
1
43
0.0
10
394.5655785774378
20
-439.11046924646627
10
363.92380085267865
20
-464.82197363392788
10
312.50079207775548
20
-403.53841818440964
10
343.14256980251463
20
-377.82691379694802
0
LWPOLYLINE
5
187
100
AcDbEntity
8
0
100
AcDbPolyline
90
5
70
1
43
0.0
10
389.35244785437482
20
-305.6217782649108
10
354.71143170299729
20
-285.6217782649108
10
335.07041555161976
20
-239.64101615137764
10
350.07041555161976
20
-213.66025403784448
10
419.35244785437482
20
-253.66025403784448
0
LWPOLYLINE
5
188
100
AcDbEntity
8
0
100
AcDbPolyline
90
5
70
1
43
0.0
10
480.95498823281866
20
-346.96152422706643
10
391.67295593006361
20
-341.60254037844396
10
421.67295593006361
20
-289.64101615137764
10
456.31397208144108
20
-309.64101615137764
10
490.95498823281866
20
-329.64101615137764
0
LWPOLYLINE
5
189
100
AcDbEntity
8
0
100
AcDbPolyline
90
4
70
1
43
0.0
10
454.35244785437482
20
-193.03847577293382
10
434.35244785437482
20
-227.67949192431132
10
365.07041555161976
20
-187.67949192431132
10
385.07041555161976
20
-153.03847577293379
0
LWPOLYLINE
5
190
100
AcDbEntity
8
0
100
AcDbPolyline
90
4
70
1
43
0.0
10
520.95498823281866
20
-277.67949192431138
10
500.95498823281866
20
-312.32050807568891
10
431.67295593006361
20
-272.32050807568891
10
451.67295593006361
20
-237.67949192431132
0
LWPOLYLINE
5
191
100
AcDbEntity
8
0
100
AcDbPolyline
90
5
70
1
43
0.0
10
470.4004265392968
20
-154.02414976765041
10
431.00811641880853
20
-147.07822266097321
10
396.82525162832809
20
-110.58806296392974
10
402.03469695833599
20
-81.043830373563495
10
480.81931719931265
20
-94.935684586917915
0
LWPOLYLINE
5
192
100
AcDbEntity
8
0
100
AcDbPolyline
90
5
70
1
43
0.0
10
570.61768361718703
20
-161.54089000422135
10
484.88713626953313
20
-187.04134591135528
10
495.30602692954892
20
-127.95288073062278
10
534.69833705003725
20
-134.89880783729998
10
574.09064717052559
20
-141.84473494397719
0
LWPOLYLINE
5
193
100
AcDbEntity
8
0
100
AcDbPolyline
90
4
70
1
43
0.0
10
492.97468963599778
20
-25.999141876063359
10
486.02876252932055
20
-65.39145199655168
10
407.24414228834394
20
-51.49959778319726
10
414.19006939502111
20
-12.107287662708934
0
LWPOLYLINE
5
194
100
AcDbEntity
8
0
100
AcDbPolyline
90
4
70
1
43
0.0
10
584.50953783054138
20
-82.756269763244717
10
577.56361072386414
20
-122.14857988373303
10
498.77899048288754
20
-108.25672567037861
10
505.72491758956471
20
-68.864415549890282
0
LWPOLYLINE
5
195
100
AcDbEntity
8
0
100
AcDbPolyline
90
5
70
1
43
0.0
10
494.711171412667
20
16.151064345941116
10
455.31886129217872
20
9.2051372392639141
10
410.7171058416825
20
31.803442722952965
10
405.50766051167454
20
61.347675313319208
10
484.29228075265121
20
75.239529526673607
0
LWPOLYLINE
5
196
100
AcDbEntity
8
0
100
AcDbPolyline
90
5
70
1
43
0.0
10
591.45546493721861
20
43.363959642756186
10
519.61677180291917
20
-9.9202046910865249
10
509.19788114290333
20
49.168260489645959
10
548.59019126339172
20
56.114187596323163
10
587.98250138387994
20
63.060114703000352
0
LWPOLYLINE
5
197
100
AcDbEntity
8
0
100
AcDbPolyline
90
4
70
1
43
0.0
10
472.13690831596614
20
144.17607223752816
10
479.08283542264337
20
104.78376211703986
10
400.29821518166671
20
90.89190790368545
10
393.35228807498947
20
130.28421802417375
0
LWPOLYLINE
5
198
100
AcDbEntity
8
0
100
AcDbPolyline
90
4
70
1
43
0.0
10
577.56361072386414
20
122.14857988373284
10
584.50953783054138
20
82.756269763244518
10
505.72491758956471
20
68.864415549890126
10
498.77899048288754
20
108.25672567037844
0
LWPOLYLINE
5
199
100
AcDbEntity
8
0
100
AcDbPolyline
90
5
70
1
43
0.0
10
459.35244785437487
20
184.37822173508937
10
424.7114317029974
20
164.37822173508934
10
375.07041555161982
20
170.3589838486225
10
360.07041555161982
20
196.33974596215566
10
429.35244785437487
20
236.33974596215569
0
LWPOLYLINE
5
200
100
AcDbEntity
8
0
100
AcDbPolyline
90
5
70
1
43
0.0
10
540.95498823281878
20
243.03847577293374
10
491.67295593006367
20
168.39745962155621
10
461.67295593006367
20
220.35898384862253
10
496.31397208144119
20
240.35898384862253
10
530.95498823281878
20
260.35898384862253
0
LWPOLYLINE
5
201
100
AcDbEntity
8
0
100
AcDbPolyline
90
4
70
1
43
0.0
10
394.35244785437487
20
296.96152422706638
10
414.35244785437487
20
262.32050807568885
10
345.07041555161982
20
222.32050807568882
10
325.07041555161982
20
256.96152422706638
0
LWPOLYLINE
5
202
100
AcDbEntity
8
0
100
AcDbPolyline
90
4
70
1
43
0.0
10
500.95498823281878
20
312.32050807568885
10
520.95498823281878
20
277.67949192431126
10
451.67295593006367
20
237.67949192431129
10
431.67295593006367
20
272.32050807568885
0
LWPOLYLINE
5
203
100
AcDbEntity
8
0
100
AcDbPolyline
90
5
70
1
43
0.0
10
368.58903976473289
20
330.36664445024144
10
342.87753537727127
20
299.72486672548223
10
294.18469769624033
20
288.36671729131933
10
271.20336440267101
20
307.65034558191553
10
322.62637317759413
20
368.93390103143383
0
LWPOLYLINE
5
204
100
AcDbEntity
8
0
100
AcDbPolyline
90
5
70
1
43
0.0
10
425.20735630219701
20
413.39896485900459
10
404.42612525203299
20
326.40390502202479
10
358.46345866489429
20
364.97116160321718
10
384.17496305235591
20
395.61293932797628
10
409.88646743981747
20
426.25471705273537
0
LWPOLYLINE
5
205
100
AcDbEntity
8
0
100
AcDbPolyline
90
4
70
1
43
0.0
10
269.00326215926566
20
413.92903370949159
10
299.64503988402487
20
388.21752932202997
10
248.22203110910166
20
326.93397387251173
10
217.5802533843426
20
352.64547825997334
0
LWPOLYLINE
5
206
100
AcDbEntity
8
0
100
AcDbPolyline
90
4
70
1
43
0.0
10
363.92380085267882
20
464.82197363392777
10
394.56557857743798
20
439.11046924646621
10
343.1425698025148
20
377.82691379694796
10
312.50079207775565
20
403.53841818440958
0
LWPOLYLINE
5
207
100
AcDbEntity
8
0
100
AcDbPolyline
90
5
70
1
43
0.0
10
233.36835368459157
20
436.50797415229812
10
219.6875479515648
20
398.92026932086185
10
177.81596359496078
20
371.59316878919554
10
149.6251849713835
20
381.85377308896562
10
176.98679643743708
20
457.02918275183828
0
LWPOLYLINE
5
208
100
AcDbEntity
8
0
100
AcDbPolyline
90
5
70
1
43
0.0
10
258.17344180929945
20
533.89743766414563
10
268.39953517468223
20
445.0412222682462
10
212.01797792752771
20
465.56243086778636
10
225.69878366055448
20
503.15013569922263
10
239.37958939358126
20
540.73784053065901
0
LWPOLYLINE
5
209
100
AcDbEntity
8
0
100
AcDbPolyline
90
4
70
1
43
0.0
10
111.20831298242351
20
480.97059278463513
10
148.79601781385983
20
467.28978705160836
10
121.43440634780629
20
392.1143773887357
10
83.846701516369961
20
405.79518312176248
0
LWPOLYLINE
5
210
100
AcDbEntity
8
0
100
AcDbPolyline
90
4
70
1
43
0.0
10
182.99803214642677
20
561.25904913019917
10
220.58573697786312
20
547.5782433971724
10
193.22412551180958
20
472.40283373429975
10
155.63642068037322
20
486.08363946732652
0
ENDSEC
0
SECTION
2
OBJECTS
0
DICTIONARY
5
C
100
AcDbDictionary
3
ACAD_GROUP
350
D
3
ACAD_MLINESTYLE
350
17
0
DICTIONARY
5
D
100
AcDbDictionary
0
DICTIONARY
5
1A
330
C
100
AcDbDictionary
0
DICTIONARY
5
17
100
AcDbDictionary
0
ENDSEC
0
EOF
